<svg xmlns="http://www.w3.org/2000/svg" version="1.1" xmlns:xlink="http://www.w3.org/1999/xlink" xmlns:svgjs="http://svgjs.dev/svgjs" width="100%" height="100%" viewBox="0 0 1000 600"><rect width="1000" height="600" x="0" y="0" fill="#5865f2"/><g><circle r="166.66666666666666" cx="309.5363108317057" cy="331.7585384464661" fill="#6a0dad" transform="matrix(0.874923529632908,0,0,0.8749235296329081,0,9.736659366427716)"/><path d="M351.7715990071797 256.75856257744306L370.91205119332074 256.75856257744306L370.91205119332074 406.7585646056384L350.34271108356154 406.7585646056384L267.3010617551477 289.9885142894934L267.3010617551477 406.7585646056384L248.16060956900674 406.7585646056384L248.16060956900674 256.75856257744306L268.76317963047796 256.75856257744306L351.7715990071797 375.1901104791906L351.7715990071797 256.75856257744306Z " fill="white" transform="matrix(0.874923529632908,0,0,0.8749235296329081,0,9.736659366427716)"/><path d="M674.8250317529223 256.7585702325674L699.1688610927971 256.7585702325674L699.1688610927971 404.8556667826947L680.2712253788243 404.8556667826947L680.2712253788243 288.15620456984516L637.9812037897427 375.32811097961223L620.7239878426078 375.32811097961223L578.4339662535263 287.9265458024878L578.4339662535263 404.8556667826947L559.5363305395534 404.8556667826947L559.5363305395534 256.7585702325674L584.8316033441941 256.7585702325674L629.7134881648797 350.98428163973745L674.8250317529223 256.7585702325674ZM758.2239726989621 406.75855371222667L758.2239726989621 406.75855371222667Q740.2449720544186 406.75855371222667 731.8788312435452 398.1299457386592Q723.4798820373351 389.50133776509176 723.4798820373351 370.8333608184763L723.4798820373351 370.8333608184763Q723.4798820373351 351.9357251045035 733.6504845917302 344.0289018283447Q743.7882787507885 336.12207855218594 768.1321080906632 336.12207855218594L768.1321080906632 336.12207855218594Q776.170164948169 336.12207855218594 783.9457546429808 336.8110548542578Q791.7541527331292 337.5328395516665 798.6111073585117 338.94360055114714L798.6111073585117 338.94360055114714L798.6111073585117 327.6247041599655Q798.6111073585117 314.63257960660917 791.9838115004866 308.95672721334995Q785.3893240377981 303.28087482009073 770.7239713222671 303.28087482009073L770.7239713222671 303.28087482009073Q759.8643924658002 303.28087482009073 751.596676840937 304.10108470350974Q743.3289612160738 304.92129458692864 735.0612455912108 306.8241815164607L735.0612455912108 306.8241815164607L735.0612455912108 290.05909149937713Q744.5100634481971 287.69688703513054 754.319773653888 286.7454435703645Q764.1294838595787 285.79400010559857 776.6294824828836 285.79400010559857L776.6294824828836 285.79400010559857Q797.6596638937458 285.79400010559857 807.8302664481408 295.6037103112893Q817.9680606071993 305.41342051698007 817.9680606071993 325.9514759977908L817.9680606071993 325.9514759977908L817.9680606071993 404.8556667826947L800.2515271253496 404.8556667826947L799.3000836605837 393.9960879262277L798.8407661258691 393.9960879262277Q791.7541527331292 399.6719403194869 780.5336815279579 403.2152470158568Q769.3132103227865 406.75855371222667 758.2239726989621 406.75855371222667ZM770.2646537875526 351.9357251045035L770.2646537875526 351.9357251045035Q754.188540072541 351.9357251045035 747.9221365632201 355.83992414957766Q741.688541449236 359.74412319465193 741.688541449236 369.652258586353L741.688541449236 369.652258586353Q741.688541449236 380.0525199081054 746.8722679124438 384.64569525525155Q752.0559943756516 389.2716789977345 763.8670166968845 389.2716789977345L763.8670166968845 389.2716789977345Q773.0861757865138 389.2716789977345 782.7646524108575 386.4173486034365Q792.4759374305379 383.5958266044753 798.6111073585117 379.33073521069673L798.6111073585117 379.33073521069673L798.6111073585117 354.2979295687501Q790.8027092683633 353.1168273366268 784.0769882243278 352.52627622056514Q777.3512671802923 351.9357251045035 770.2646537875526 351.9357251045035ZM867.5743543563779 313.4514773744859L867.5743543563779 404.8556667826947L848.2174011076904 404.8556667826947L848.2174011076904 288.15620456984516L865.9339345895398 288.15620456984516L866.8853780543059 298.09714835688294L867.8040131237351 298.09714835688294Q877.0231722133643 292.6509547309811 886.2423313029934 289.9278579180301Q895.4614903926225 287.20476110507917 904.4181823195576 287.20476110507917L904.4181823195576 287.20476110507917Q908.2239561786215 287.20476110507917 909.5034835967551 287.20476110507917Q910.8158194102255 287.20476110507917 911.5047957122974 287.4672282677732L911.5047957122974 287.4672282677732L911.5047957122974 306.10239681905205Q909.8643759454594 305.64307928433743 907.3709378998658 305.5118457029903Q904.910308249609 305.41342051698007 899.6937733910643 305.41342051698007L899.6937733910643 305.41342051698007Q891.196398998844 305.41342051698007 883.0599169553279 307.4147326325224Q874.890626516475 309.41604474806456 867.5743543563779 313.4514773744859L867.5743543563779 313.4514773744859ZM1000.087463121545 386.67981576613056L1000.087463121545 386.67981576613056L1000.087463121545 402.9527798531627Q996.3144976578178 404.62600801533745 989.8184353811397 405.6758766661137Q983.3223731044615 406.75855371222667 977.416861943845 406.75855371222667L977.416861943845 406.75855371222667Q956.1570217656255 406.75855371222667 947.0690962573434 397.3097358552403Q937.9811707490613 387.86091799825385 937.9811707490613 364.6981908905025L937.9811707490613 364.6981908905025L937.9811707490613 304.6916358195714L920.4942960345692 304.6916358195714L920.4942960345692 288.15620456984516L938.2108295164187 288.15620456984516L941.294818678074 259.8097509988859L957.3381239977489 259.8097509988859L957.3381239977489 288.15620456984516L998.9063608894216 288.15620456984516L998.9063608894216 304.6916358195714L957.3381239977489 304.6916358195714L957.3381239977489 363.9764061930938Q957.3381239977489 378.4121001412675 962.6530840423037 383.5958266044753Q967.9680440868585 388.7795530676831 981.4522945702663 388.7795530676831L981.4522945702663 388.7795530676831Q985.684577568708 388.7795530676831 991.2291963806202 388.0905767656112Q996.8066235878691 387.36879206820254 1000.087463121545 386.67981576613056Z " fill="white" transform="matrix(0.874923529632908,0,0,0.8749235296329081,0,9.736659366427716)"/></g></svg>